<svg id="SvgjsSvg1223" width="100%" height="100%" xmlns="http://www.w3.org/2000/svg" version="1.1"
     xlink="http://www.w3.org/1999/xlink" preserveAspectRatio="xMidYMid meet"
     viewBox="40 5.957149937785289e-7 300 48.95450973510742" overflow="visible">
    <defs id="SvgjsDefs1224">
        <linearGradient id="SvgjsLinearGradientozMwy7Pqme" gradientUnits="userSpaceOnUse" x1="6.902782440185559"
                        y1="93.0974063873291" x2="93.09759521484376" y2="6.902593612670893">
            <stop id="SvgjsStop1227" stop-color="#808080" offset="0.05"></stop>
            <stop id="SvgjsStop1228" stop-color="#404040" offset="0.95"></stop>
        </linearGradient>
    </defs>
    <g id="SvgjsG1225" transform="scale(1.2365026122075955)" opacity="1">
        <g id="SvgjsG1230" class="text" transform="translate(153.8397830906825, 35.66925768979707) scale(1)"
           light-content="false" fill="#404040">
            <path
                d="M-75.69 -7C-77.93 -7.06 -79.06 -8.73 -79.06 -12.01L-79.03 -13.12L-78.76 -16.11C-78.26 -21.95 -76.3 -24.81 -72.91 -24.7C-70.41 -24.64 -69.2 -22.93 -69.3 -19.57L-60.28 -19.54C-60.2 -23.41 -61.23 -26.48 -63.37 -28.75C-65.51 -31.03 -68.42 -32.21 -72.11 -32.29C-75.02 -32.36 -77.66 -31.73 -80.01 -30.38C-82.36 -29.03 -84.26 -27.12 -85.71 -24.65C-87.15 -22.18 -88.05 -19.35 -88.4 -16.14L-88.49 -15.44C-88.92 -10.75 -87.99 -6.93 -85.71 -3.97C-83.42 -1.01 -80.17 0.51 -75.95 0.59C-73.51 0.64 -71.22 0.17 -69.08 -0.83C-66.94 -1.84 -65.24 -3.26 -63.98 -5.1C-62.72 -6.93 -62.04 -9.01 -61.92 -11.34L-70.94 -11.31C-71.16 -10.02 -71.66 -8.97 -72.44 -8.16C-73.22 -7.35 -74.3 -6.96 -75.69 -7Z M-41.35 -32.29C-45.92 -32.36 -49.75 -30.86 -52.82 -27.77C-55.9 -24.69 -57.68 -20.55 -58.17 -15.35C-58.44 -12.36 -58.09 -9.65 -57.1 -7.21C-56.11 -4.77 -54.59 -2.87 -52.54 -1.51C-50.49 -0.15 -48.06 0.55 -45.25 0.59C-40.74 0.66 -36.95 -0.79 -33.88 -3.78C-30.82 -6.77 -29.01 -10.69 -28.46 -15.56L-28.4 -16.2C-28.13 -19.21 -28.48 -21.94 -29.44 -24.4C-30.41 -26.87 -31.93 -28.78 -34 -30.16C-36.07 -31.54 -38.52 -32.25 -41.35 -32.29ZM-48.53 -15.35C-48.22 -18.61 -47.49 -21 -46.35 -22.51C-45.21 -24.03 -43.75 -24.76 -41.97 -24.7C-40.62 -24.66 -39.6 -24.12 -38.91 -23.07C-38.21 -22.03 -37.89 -20.62 -37.92 -18.87L-38.04 -16.2C-38.65 -9.93 -40.84 -6.86 -44.63 -6.97C-47.56 -7.05 -48.89 -9.27 -48.62 -13.62Z M-3.97 -22.76L-2.71 -31.96C-3.9 -32.24 -4.9 -32.37 -5.7 -32.37C-8.51 -32.37 -10.95 -30.77 -13.02 -27.57L-12.29 -31.73L-21.28 -31.7L-26.79 0L-17.15 0L-13.58 -20.07C-12.06 -22.14 -9.85 -23.13 -6.96 -23.06C-6 -23.02 -5 -22.92 -3.97 -22.76Z M10.36 -11.87L8.72 -31.7L-1.19 -31.7L3.88 0L13.7 0L28.7 -31.7L18.3 -31.7Z M45.98 -3.46L45.34 0L54.3 0L59.81 -31.7L50.11 -31.7L46.19 -9.43C44.76 -7.75 43.03 -6.95 41 -7.03C39.24 -7.09 38.3 -7.92 38.16 -9.52C38.1 -9.99 38.1 -10.51 38.16 -11.07L41.65 -31.7L32.01 -31.7L28.58 -11.19C28.23 -7.62 28.84 -4.77 30.41 -2.64C31.98 -0.51 34.32 0.58 37.43 0.62C40.77 0.69 43.62 -0.66 45.98 -3.46Z M77.36 -9.08C77.14 -8.11 76.62 -7.35 75.78 -6.81C74.94 -6.27 73.92 -6.01 72.73 -6.01C69.96 -5.97 68.55 -7.35 68.51 -10.17L59.55 -10.22C59.58 -8.13 60.16 -6.28 61.26 -4.67C62.36 -3.06 63.9 -1.79 65.86 -0.85C67.82 0.09 69.95 0.57 72.23 0.59C74.87 0.64 77.31 0.22 79.57 -0.67C81.83 -1.57 83.55 -2.77 84.74 -4.28C85.93 -5.78 86.56 -7.49 86.62 -9.4C86.67 -11.16 86.31 -12.67 85.53 -13.92C84.75 -15.17 83.62 -16.22 82.13 -17.07C80.65 -17.92 78.55 -18.66 75.83 -19.31C72.71 -19.89 71.31 -20.98 71.65 -22.56C71.8 -23.52 72.3 -24.28 73.14 -24.86C73.98 -25.43 74.89 -25.72 75.86 -25.72C78.15 -25.72 79.25 -24.47 79.17 -21.97L88.78 -21.94C88.75 -25.09 87.57 -27.59 85.25 -29.44C82.94 -31.3 79.92 -32.25 76.19 -32.29C72.44 -32.32 69.26 -31.39 66.65 -29.49C64.04 -27.58 62.69 -25.11 62.59 -22.06C62.5 -19.83 63.24 -17.91 64.82 -16.29C66.4 -14.67 68.89 -13.41 72.29 -12.51L74.37 -11.98C76.62 -11.34 77.61 -10.37 77.36 -9.08Z"></path>
        </g>
    </g>
</svg>
