<?xml version="1.0" encoding="UTF-8"?>
<svg xmlns="http://www.w3.org/2000/svg" width="16px" height="16px"
     viewBox="0 0 16 16" version="1.1">
    <g id="main">
        <path style=" stroke:none;fill-rule:nonzero;fill:rgb(0%,0%,0%);fill-opacity:1;"
              d="M 8 5.503906 C 7.625 5.503906 7.378906 5.816406 7.378906 6.125 L 7.378906 9.847656 C 7.378906 10.222656 7.625 10.46875 8 10.46875 C 8.371094 10.46875 8.617188 10.15625 8.617188 9.847656 L 8.617188 6.125 C 8.617188 5.75 8.371094 5.503906 8 5.503906 Z M 8 5.503906 "/>
        <path style=" stroke:none;fill-rule:nonzero;fill:rgb(0%,0%,0%);fill-opacity:1;"
              d="M 8.617188 12.332031 C 8.617188 12.675781 8.339844 12.953125 8 12.953125 C 7.65625 12.953125 7.378906 12.675781 7.378906 12.332031 C 7.378906 11.988281 7.65625 11.710938 8 11.710938 C 8.339844 11.710938 8.617188 11.988281 8.617188 12.332031 Z M 8.617188 12.332031 "/>
        <path style=" stroke:none;fill-rule:nonzero;fill:rgb(0%,0%,0%);fill-opacity:1;"
              d="M 15.695312 12.703125 L 8.992188 1.839844 C 8.433594 0.96875 7.5625 0.96875 7.003906 1.839844 L 0.304688 12.703125 C -0.378906 13.878906 0.117188 14.8125 1.480469 14.8125 L 14.453125 14.8125 C 15.882812 14.8125 16.378906 13.882812 15.695312 12.703125 Z M 14.640625 14.191406 L 1.359375 14.191406 C 0.675781 14.191406 0.425781 13.695312 0.800781 13.136719 L 7.628906 2.089844 C 7.8125 1.714844 8.1875 1.714844 8.4375 2.089844 L 15.265625 13.136719 C 15.574219 13.695312 15.324219 14.191406 14.640625 14.191406 Z M 14.640625 14.191406 "/>
    </g>
</svg>
